<svg xmlns="http://www.w3.org/2000/svg" viewBox="0 0 512 512" role="img" aria-label="Help Mobility">
  <defs>
    <linearGradient id="g" x1="0" y1="0" x2="1" y2="1">
      <stop offset="0" stop-color="#005a96"/>
      <stop offset="1" stop-color="#00780a"/>
    </linearGradient>
  </defs>
  <!-- maskable safe background fills the full canvas -->
  <rect width="512" height="512" rx="112" fill="url(#g)"/>
  <!-- standing figure (green side of the brand), arm raised: "get active" -->
  <circle cx="318" cy="120" r="30" fill="#ffffff"/>
  <path d="M318 158c-26 0-44 18-44 46l-2 86c0 12 18 12 19 0l9-70h6l9 150c1 14 23 14 24 0l9-150h6l9 70c1 12 19 12 19 0l-2-86c0-28-18-46-44-46z" fill="#ffffff"/>
  <path d="M300 196l-44-30" fill="none" stroke="#ffffff" stroke-width="16" stroke-linecap="round"/>
  <!-- seated figure + wheel (blue side of the brand) -->
  <circle cx="150" cy="150" r="28" fill="#ffffff"/>
  <path d="M150 186c-24 0-40 16-40 40v44h70l40 40-22 22-50-40h-66c-12 0-22-10-22-22v-44c0-44 36-80 80-80" fill="#ffffff" opacity="0.96"/>
  <circle cx="150" cy="372" r="64" fill="none" stroke="#ffffff" stroke-width="18"/>
  <circle cx="150" cy="372" r="11" fill="#ffffff"/>
</svg>
